<svg width="160" height="160" viewBox="0 0 160 160" fill="none" xmlns="http://www.w3.org/2000/svg">
<g clip-path="url(#clip0_103_46)">
<path d="M122.5 0H37.5C16.7893 0 0 16.7893 0 37.5V122.5C0 143.211 16.7893 160 37.5 160H122.5C143.211 160 160 143.211 160 122.5V37.5C160 16.7893 143.211 0 122.5 0Z" fill="#5865F2"/>
<mask id="mask0_103_46" style="mask-type:luminance" maskUnits="userSpaceOnUse" x="17" y="31" width="126" height="98">
<path d="M17.5 31.875H142.5V128.706H17.5V31.875Z" fill="white"/>
</mask>
<g mask="url(#mask0_103_46)">
<path d="M123.318 40.4982C115.213 36.7786 106.661 34.1258 97.8745 32.6063C97.7946 32.5917 97.7122 32.6026 97.6389 32.6373C97.5656 32.6721 97.505 32.729 97.4657 32.8C96.367 34.7538 95.1495 37.3038 94.2976 39.3075C84.6895 37.8688 75.1314 37.8688 65.7207 39.3075C64.8682 37.2588 63.607 34.7538 62.5032 32.8C62.4626 32.7301 62.4017 32.6742 62.3286 32.6396C62.2555 32.605 62.1737 32.5934 62.0939 32.6063C53.3065 34.1224 44.7536 36.7753 36.6507 40.4982C36.5817 40.5282 36.5234 40.5783 36.4832 40.6419C20.2782 64.8519 15.8395 88.4669 18.017 111.789C18.0303 111.905 18.0887 112.01 18.1795 112.082C28.8707 119.934 39.2276 124.701 49.392 127.86C49.4711 127.883 49.5554 127.882 49.6338 127.857C49.7121 127.831 49.7808 127.782 49.8307 127.716C52.2351 124.433 54.3782 120.971 56.2164 117.33C56.2417 117.28 56.2561 117.225 56.2588 117.17C56.2614 117.114 56.2522 117.058 56.2317 117.006C56.2112 116.954 56.1799 116.907 56.1399 116.868C56.0998 116.829 56.052 116.799 55.9995 116.779C52.5995 115.489 49.3626 113.918 46.2489 112.132C46.1921 112.098 46.1445 112.052 46.1102 111.995C46.0759 111.939 46.0559 111.876 46.052 111.81C46.0481 111.744 46.0604 111.679 46.0879 111.619C46.1153 111.559 46.1571 111.507 46.2095 111.467C46.8664 110.976 47.512 110.47 48.1457 109.949C48.2013 109.904 48.2685 109.874 48.3398 109.865C48.4111 109.855 48.4837 109.865 48.5495 109.894C69.007 119.234 91.1539 119.234 111.369 109.894C111.436 109.863 111.509 109.852 111.581 109.86C111.654 109.869 111.722 109.898 111.779 109.944C112.413 110.468 113.061 110.975 113.72 111.467C113.773 111.506 113.815 111.558 113.843 111.618C113.871 111.677 113.883 111.743 113.88 111.809C113.877 111.874 113.857 111.938 113.823 111.994C113.789 112.051 113.742 112.098 113.686 112.132C110.57 113.951 107.307 115.504 103.93 116.774C103.878 116.795 103.83 116.826 103.791 116.865C103.751 116.905 103.72 116.953 103.7 117.005C103.68 117.057 103.672 117.113 103.675 117.169C103.678 117.225 103.693 117.28 103.718 117.33C105.588 120.942 107.72 124.412 110.098 127.711C110.147 127.779 110.215 127.829 110.294 127.856C110.372 127.882 110.457 127.884 110.537 127.86C120.751 124.701 131.108 119.934 141.799 112.082C141.845 112.048 141.883 112.005 141.911 111.955C141.939 111.906 141.957 111.851 141.962 111.794C144.568 84.8313 137.596 61.4094 123.48 40.6469C123.446 40.5792 123.388 40.5264 123.318 40.4982ZM59.2714 97.5888C53.112 97.5888 48.037 91.9344 48.037 84.99C48.037 78.0457 53.0139 72.3913 59.2714 72.3913C65.5776 72.3913 70.6032 78.0957 70.5045 84.99C70.5045 91.9344 65.5282 97.5888 59.2714 97.5888ZM100.806 97.5888C94.647 97.5888 89.5726 91.9344 89.5726 84.99C89.5726 78.0457 94.5489 72.3913 100.806 72.3913C107.113 72.3913 112.138 78.0957 112.04 84.99C112.04 91.9344 107.113 97.5888 100.806 97.5888Z" fill="white"/>
</g>
</g>
<defs>
<clipPath id="clip0_103_46">
<rect width="160" height="160" fill="white"/>
</clipPath>
</defs>
</svg>
