<svg width="114" height="114" viewBox="0 0 114 114" fill="none" xmlns="http://www.w3.org/2000/svg">
<path d="M57 73.9813C56.3667 73.9813 55.7729 73.8831 55.2188 73.6868C54.6646 73.4904 54.15 73.1532 53.675 72.675L36.575 55.575C35.625 54.625 35.169 53.5167 35.207 52.25C35.245 50.9833 35.701 49.875 36.575 48.925C37.525 47.975 38.6539 47.481 39.9618 47.443C41.2696 47.405 42.3969 47.8594 43.3438 48.8063L52.25 57.7125V23.75C52.25 22.4042 52.706 21.2769 53.618 20.368C54.53 19.4592 55.6573 19.0032 57 19C58.3427 18.9968 59.4716 19.4529 60.3868 20.368C61.3019 21.2832 61.7563 22.4105 61.75 23.75V57.7125L70.6562 48.8063C71.6063 47.8563 72.7352 47.4003 74.043 47.4383C75.3508 47.4763 76.4782 47.9718 77.425 48.925C78.2958 49.875 78.7518 50.9833 78.793 52.25C78.8342 53.5167 78.3782 54.625 77.425 55.575L60.325 72.675C59.85 73.15 59.3354 73.4873 58.7812 73.6868C58.2271 73.8863 57.6333 73.9844 57 73.9813ZM28.5 95C25.8875 95 23.6518 94.0706 21.793 92.2118C19.9342 90.3529 19.0032 88.1157 19 85.5V76C19 74.6542 19.456 73.5269 20.368 72.618C21.28 71.7092 22.4073 71.2532 23.75 71.25C25.0927 71.2469 26.2216 71.7029 27.1367 72.618C28.0519 73.5332 28.5063 74.6605 28.5 76V85.5H85.5V76C85.5 74.6542 85.956 73.5269 86.868 72.618C87.78 71.7092 88.9073 71.2532 90.25 71.25C91.5927 71.2469 92.7216 71.7029 93.6367 72.618C94.5519 73.5332 95.0063 74.6605 95 76V85.5C95 88.1125 94.0706 90.3498 92.2118 92.2118C90.3529 94.0738 88.1157 95.0032 85.5 95H28.5Z" fill="white"/>
</svg>
