<svg width="100" height="100" viewBox="0 0 100 100" fill="none" xmlns="http://www.w3.org/2000/svg">
<path d="M58.3333 16.6667H66.6667C72.5583 16.6667 75.5042 16.6667 77.3333 18.5C79.1667 20.325 79.1667 23.2709 79.1667 29.1667M41.6667 16.6667H33.3333C27.4417 16.6667 24.4958 16.6667 22.6667 18.5C20.8333 20.325 20.8333 23.2709 20.8333 29.1667M41.6667 83.3334H33.3333C27.4417 83.3334 24.4958 83.3334 22.6667 81.5C20.8333 79.675 20.8333 76.7292 20.8333 70.8334M58.3333 83.3334H66.6667C72.5583 83.3334 75.5042 83.3334 77.3333 81.5C79.1667 79.6709 79.1667 76.725 79.1667 70.8334M41.6667 50H58.3333M54.1667 8.33337H45.8333C44.7283 8.33337 43.6685 8.77236 42.8871 9.55376C42.1057 10.3352 41.6667 11.395 41.6667 12.5V20.8334C41.6667 21.9384 42.1057 22.9983 42.8871 23.7797C43.6685 24.5611 44.7283 25 45.8333 25H54.1667C55.2717 25 56.3315 24.5611 57.1129 23.7797C57.8943 22.9983 58.3333 21.9384 58.3333 20.8334V12.5C58.3333 11.395 57.8943 10.3352 57.1129 9.55376C56.3315 8.77236 55.2717 8.33337 54.1667 8.33337ZM54.1667 75H45.8333C44.7283 75 43.6685 75.439 42.8871 76.2204C42.1057 77.0018 41.6667 78.0616 41.6667 79.1667V87.5C41.6667 88.6051 42.1057 89.6649 42.8871 90.4463C43.6685 91.2277 44.7283 91.6667 45.8333 91.6667H54.1667C55.2717 91.6667 56.3315 91.2277 57.1129 90.4463C57.8943 89.6649 58.3333 88.6051 58.3333 87.5V79.1667C58.3333 78.0616 57.8943 77.0018 57.1129 76.2204C56.3315 75.439 55.2717 75 54.1667 75ZM87.5 54.1667V45.8334C87.5 44.7283 87.061 43.6685 86.2796 42.8871C85.4982 42.1057 84.4384 41.6667 83.3333 41.6667H75C73.8949 41.6667 72.8351 42.1057 72.0537 42.8871C71.2723 43.6685 70.8333 44.7283 70.8333 45.8334V54.1667C70.8333 55.2718 71.2723 56.3316 72.0537 57.113C72.8351 57.8944 73.8949 58.3334 75 58.3334H83.3333C84.4384 58.3334 85.4982 57.8944 86.2796 57.113C87.061 56.3316 87.5 55.2718 87.5 54.1667ZM29.1667 54.1667V45.8334C29.1667 44.7283 28.7277 43.6685 27.9463 42.8871C27.1649 42.1057 26.1051 41.6667 25 41.6667H16.6667C15.5616 41.6667 14.5018 42.1057 13.7204 42.8871C12.939 43.6685 12.5 44.7283 12.5 45.8334V54.1667C12.5 55.2718 12.939 56.3316 13.7204 57.113C14.5018 57.8944 15.5616 58.3334 16.6667 58.3334H25C26.1051 58.3334 27.1649 57.8944 27.9463 57.113C28.7277 56.3316 29.1667 55.2718 29.1667 54.1667Z" stroke="white" stroke-width="6" stroke-linecap="round" stroke-linejoin="round"/>
</svg>
