<svg width="100" height="100" viewBox="0 0 100 100" fill="none" xmlns="http://www.w3.org/2000/svg">
<path d="M6.25 21.875C6.25 17.731 7.8962 13.7567 10.8265 10.8265C13.7567 7.8962 17.731 6.25 21.875 6.25H65.625C69.769 6.25 73.7433 7.8962 76.6735 10.8265C79.6038 13.7567 81.25 17.731 81.25 21.875V31.4375C79.1741 31.197 77.0778 31.1886 75 31.4125V31.25H12.5V65.625C12.5 68.1114 13.4877 70.496 15.2459 72.2541C17.004 74.0123 19.3886 75 21.875 75H40.3375L35.8375 79.5C35.2908 80.0452 34.7852 80.6301 34.325 81.25H21.875C17.731 81.25 13.7567 79.6038 10.8265 76.6735C7.8962 73.7433 6.25 69.769 6.25 65.625V21.875ZM55.8187 42.025L52.2125 38.4125C51.922 38.122 51.577 37.8915 51.1974 37.7342C50.8178 37.577 50.4109 37.4961 50 37.4961C49.5891 37.4961 49.1822 37.577 48.8026 37.7342C48.423 37.8915 48.078 38.122 47.7875 38.4125C47.4969 38.703 47.2665 39.048 47.1092 39.4276C46.952 39.8072 46.8711 40.2141 46.8711 40.625C46.8711 41.0359 46.952 41.4428 47.1092 41.8224C47.2665 42.202 47.4969 42.547 47.7875 42.8375L52.4437 47.4875C53.3438 45.5667 54.4688 43.7458 55.8187 42.025ZM12.5 25H75V21.875C75 19.3886 74.0123 17.004 72.2541 15.2459C70.496 13.4877 68.1114 12.5 65.625 12.5H21.875C19.3886 12.5 17.004 13.4877 15.2459 15.2459C13.4877 17.004 12.5 19.3886 12.5 21.875V25ZM39.7125 42.8375C40.0031 42.547 40.2335 42.202 40.3908 41.8224C40.548 41.4428 40.6289 41.0359 40.6289 40.625C40.6289 40.2141 40.548 39.8072 40.3908 39.4276C40.2335 39.048 40.0031 38.703 39.7125 38.4125C39.422 38.122 39.077 37.8915 38.6974 37.7342C38.3178 37.577 37.9109 37.4961 37.5 37.4961C37.0891 37.4961 36.6822 37.577 36.3026 37.7342C35.923 37.8915 35.578 38.122 35.2875 38.4125L22.7875 50.9125C22.4965 51.2028 22.2656 51.5476 22.108 51.9273C21.9505 52.3069 21.8694 52.714 21.8694 53.125C21.8694 53.536 21.9505 53.9431 22.108 54.3227C22.2656 54.7024 22.4965 55.0472 22.7875 55.3375L35.2875 67.8375C35.8743 68.4243 36.6702 68.7539 37.5 68.7539C38.3298 68.7539 39.1257 68.4243 39.7125 67.8375C40.2993 67.2507 40.6289 66.4548 40.6289 65.625C40.6289 64.7952 40.2993 63.9993 39.7125 63.4125L29.4187 53.125L39.7125 42.8375ZM80.575 37.65C82.8625 37.9125 83.5188 40.65 81.8875 42.2875L75.7937 48.3813C74.9188 49.2562 74.2248 50.2949 73.7513 51.438C73.2778 52.5812 73.0341 53.8064 73.0341 55.0438C73.0341 56.2811 73.2778 57.5063 73.7513 58.6495C74.2248 59.7926 74.9188 60.8313 75.7937 61.7062C76.6687 62.5812 77.7074 63.2752 78.8505 63.7487C79.9937 64.2222 81.2189 64.4659 82.4562 64.4659C83.6936 64.4659 84.9188 64.2222 86.062 63.7487C87.2051 63.2752 88.2438 62.5812 89.1188 61.7062L95.2125 55.6125C96.8438 53.9812 99.5875 54.6375 99.85 56.925C100.285 60.6394 99.766 64.4034 98.3412 67.8611C96.9164 71.3189 94.6332 74.3561 91.7075 76.6855C88.7818 79.0149 85.3102 80.5596 81.6212 81.1735C77.9321 81.7874 74.1474 81.4502 70.625 80.1937L53.5875 97.2375C52.7126 98.1124 51.6739 98.8065 50.5307 99.28C49.3876 99.7535 48.1623 99.9972 46.925 99.9972C45.6877 99.9972 44.4624 99.7535 43.3193 99.28C42.1761 98.8065 41.1374 98.1124 40.2625 97.2375C39.3876 96.3626 38.6935 95.3239 38.22 94.1807C37.7465 93.0376 37.5028 91.8123 37.5028 90.575C37.5028 89.3377 37.7465 88.1124 38.22 86.9693C38.6935 85.8261 39.3876 84.7874 40.2625 83.9125L57.3 66.875C56.0432 63.352 55.706 59.5667 56.3201 55.877C56.9343 52.1874 58.4796 48.7154 60.8098 45.7895C63.14 42.8636 66.1781 40.5805 69.6367 39.1562C73.0953 37.7319 76.8601 37.2135 80.575 37.65Z" fill="white"/>
</svg>
